<svg data-name="Layer 1" xmlns="http://www.w3.org/2000/svg" viewBox="0 0 24 24" fill="#222"><path d="M12 18a6 6 0 116-6 6 6 0 01-6 6zm0-10a4 4 0 104 4 4 4 0 00-4-4zm0-4a1 1 0 01-1-1V1a1 1 0 012 0v2a1 1 0 01-1 1zm0 20a1 1 0 01-1-1v-2a1 1 0 012 0v2a1 1 0 01-1 1zM5.64 6.64a1 1 0 01-.71-.29L3.51 4.93a1 1 0 011.42-1.42l1.42 1.42a1 1 0 010 1.42 1 1 0 01-.71.29zm14.14 14.14a1 1 0 01-.71-.29l-1.42-1.42a1 1 0 011.42-1.42l1.42 1.42a1 1 0 010 1.42 1 1 0 01-.71.29zM3 13H1a1 1 0 010-2h2a1 1 0 010 2zm20 0h-2a1 1 0 010-2h2a1 1 0 010 2zM4.22 20.78a1 1 0 01-.71-.29 1 1 0 010-1.42l1.42-1.42a1 1 0 011.42 1.42l-1.42 1.42a1 1 0 01-.71.29zM18.36 6.64a1 1 0 01-.71-.29 1 1 0 010-1.42l1.42-1.42a1 1 0 111.42 1.42l-1.42 1.42a1 1 0 01-.71.29z"/></svg>